<svg version="1.1" id="Layer_1" xmlns="http://www.w3.org/2000/svg" xmlns:xlink="http://www.w3.org/1999/xlink" x="0px" y="0px"
	 width="100%" viewBox="0 0 53 53" enable-background="new 0 0 53 53" xml:space="preserve">
<path fill="#FDFDFD" opacity="1.000000" stroke="none" 
	d="
M38.007366,54.000000 
	C25.339518,54.000000 13.173000,54.000000 1.004862,54.000000 
	C1.003242,36.335712 1.003242,18.671423 1.001620,1.005350 
	C18.664070,1.003567 36.328144,1.003567 53.994164,1.001783 
	C53.996109,18.663855 53.996109,36.327709 53.998055,53.995781 
	C48.836235,54.000000 43.672466,54.000000 38.007366,54.000000 
M21.130028,6.306652 
	C12.558766,10.886535 8.522711,18.447035 10.300657,26.592665 
	C12.028496,34.508720 18.806643,40.522354 26.690622,40.965794 
	C34.415051,41.400253 40.251148,37.994816 43.865025,31.344007 
	C47.538704,24.583141 46.847569,17.775658 41.987667,11.809080 
	C36.724098,5.346915 29.853285,3.531338 21.130028,6.306652 
z"/>
<path fill="#080808" opacity="1.000000" stroke="none" 
	d="
M21.504166,6.176602 
	C29.853285,3.531338 36.724098,5.346915 41.987667,11.809080 
	C46.847569,17.775658 47.538704,24.583141 43.865025,31.344007 
	C40.251148,37.994816 34.415051,41.400253 26.690622,40.965794 
	C18.806643,40.522354 12.028496,34.508720 10.300657,26.592665 
	C8.522711,18.447035 12.558766,10.886535 21.504166,6.176602 
M21.088875,14.455123 
	C15.713686,20.377953 15.674257,27.063986 20.988621,31.455589 
	C25.304895,35.022408 31.492413,34.815899 35.555996,30.969404 
	C39.498234,27.237774 40.126808,21.398535 37.072868,16.878260 
	C33.585751,11.716823 28.161528,10.709755 21.088875,14.455123 
z"/>
<path fill="#F9F9E7" opacity="1.000000" stroke="none" 
	d="
M21.407816,14.242103 
	C28.161528,10.709755 33.585751,11.716823 37.072868,16.878260 
	C40.126808,21.398535 39.498234,27.237774 35.555996,30.969404 
	C31.492413,34.815899 25.304895,35.022408 20.988621,31.455589 
	C15.674257,27.063986 15.713686,20.377953 21.407816,14.242103 
z"/>
</svg>